# xmcd
#
# Track frame offsets:
#	150
#	10785
#	23785
#	35183
#	48350
#	57683
#	67110
#	77749
#	89112
#	100608
#
# Disc length: 1494 seconds
#
# Revision: 1
# Processed by: cddbd v1.4PL0 Copyright (c) Steve Scherf et al.
# Submitted via: dBpowerAMP V4.0
#
DISCID=8605d40a
DTITLE=Flatt and Scruggs - On Foggy Mountain
DYEAR=1994
DGENRE=Bluegrass
TTITLE0=Foggy Mountain Breakdown
TTITLE1=The Story of Bonnie and Clyde
TTITLE2=Petticoat Junction
TTITLE3=You Are My Flower
TTITLE4=The Ballad of Jed Clampett
TTITLE5=John Henry
TTITLE6=Foggy Mountain Top
TTITLE7=Coal Miner's Blues
TTITLE8=Wabash Cannon Ball
TTITLE9=Jimmy Brown the Newsboy
EXTD=
EXTT0=
EXTT1=
EXTT2=
EXTT3=
EXTT4=
EXTT5=
EXTT6=
EXTT7=
EXTT8=
EXTT9=
PLAYORDER=
